<?xml version="1.0" encoding="UTF-8"?>
<svg xmlns="http://www.w3.org/2000/svg" viewBox="0 0 512 512" width="512" height="512">
  <!-- Background circle -->
  <rect width="512" height="512" rx="120" ry="120" fill="#0f0f0d"/>
  <!-- Outer ring -->
  <circle cx="256" cy="256" r="200" fill="none" stroke="#7eb89a" stroke-width="12"/>
  <!-- Inner arc segments representing timers -->
  <circle cx="256" cy="256" r="160" fill="none" stroke="#c8a96e" stroke-width="8" 
    stroke-dasharray="251 754" stroke-dashoffset="0" transform="rotate(-90 256 256)"/>
  <circle cx="256" cy="256" r="160" fill="none" stroke="#8fb5d4" stroke-width="8"
    stroke-dasharray="150 855" stroke-dashoffset="-260" transform="rotate(-90 256 256)"/>
  <!-- Center shape - leaf/person silhouette -->
  <ellipse cx="256" cy="220" rx="44" ry="44" fill="#e8e6df" opacity="0.9"/>
  <path d="M 210 320 Q 210 280 256 272 Q 302 280 302 320 L 302 360 Q 302 380 256 380 Q 210 380 210 360 Z" 
    fill="#e8e6df" opacity="0.9"/>
  <!-- Small accent dots representing different modules -->
  <circle cx="256" cy="82" r="12" fill="#c8a96e"/>
  <circle cx="404" cy="163" r="10" fill="#8fb5d4"/>
  <circle cx="404" cy="349" r="10" fill="#7eb89a"/>
  <circle cx="256" cy="430" r="12" fill="#74c4d4"/>
  <circle cx="108" cy="349" r="10" fill="#d4a574"/>
  <circle cx="108" cy="163" r="10" fill="#b8a0cc"/>
</svg>